<svg width="370" height="100" xmlns="http://www.w3.org/2000/svg">
 <!-- Created with SVG Editor - http://github.com/mzalive/SVG Editor/ -->
 <defs>
  <linearGradient y2="0.993774" x2="1" y1="0" x1="0" id="svg_20">
   <stop offset="0.332031" stop-color="#af31bc"/>
   <stop offset="1" stop-color="#50ce43"/>
  </linearGradient>
 </defs>
 <g>
  <title>background</title>
  <rect fill="#020013" id="canvas_background" height="102" width="372" y="-1" x="-1"/>
  <g display="none" overflow="visible" y="0" x="0" height="100%" width="100%" id="canvasGrid">
   <rect fill="url(#gridpattern)" stroke-width="0" y="2" x="2" height="400" width="580"/>
  </g>
 </g>
 <g>
  <title>Layer 1</title>
  <text stroke="#000" transform="matrix(2.3019732443388943,0,0,2.0745704455777285,-185.43982967772874,-272.81271795702406) " xml:space="preserve" text-anchor="start" font-family="Oswald, sans-serif" font-size="24" id="svg_6" y="163.784018" x="120.128772" stroke-width="0" fill="url(#svg_20)">NewsWave</text>
  <path stroke="#000" id="svg_18" d="m47.24729,7.168071c-24.853109,0 -45.000011,18.579915 -45.000011,41.499998c0,22.920083 20.146902,41.499998 45.000011,41.499998c24.853109,0 45.000011,-18.579915 45.000011,-41.499998c0,-22.920083 -20.146902,-41.499998 -45.000011,-41.499998zm35.408018,45.468967c0.003096,0.005711 0.012385,0.005711 0.015481,0.011421c-0.068116,0.533955 -0.167194,1.056488 -0.263176,1.581877c-0.046443,-0.034264 -0.10527,-0.071384 -0.145521,-0.102793c-0.318907,-0.256984 -0.786432,-0.365488 -0.984588,-0.328368c-0.486102,0.091372 0.709027,0.870889 0.826682,0.976538c0.027866,0.025698 0.095982,0.085661 0.191964,0.165612c-3.185979,15.167744 -17.676143,26.663478 -35.045764,26.663478c-12.765587,0 -23.952118,-6.224714 -30.268344,-15.536087c0.380831,-0.045686 0.743085,-0.045686 0.866933,-0.217008c0.157906,-0.219864 0.315811,-0.688145 0.551122,-0.945129c0.238407,-0.254128 0.510871,-0.653881 0.393216,-0.833769c-0.120751,-0.182744 0.312715,-0.982248 0.272465,-1.196401c-0.04025,-0.217008 -0.393216,-0.730976 0.198156,-1.162137s1.219898,-1.090753 1.260149,-1.267786c0.037154,-0.179889 0.513967,-0.945129 0.470621,-1.307761c-0.037154,-0.362632 -0.470621,-0.799505 -0.743085,-0.908009c-0.278657,-0.105649 -0.866933,-0.142769 -1.102243,-0.431161c-0.238407,-0.294103 -0.904087,-0.579641 -1.139398,-0.508256c-0.23531,0.071384 -0.631623,0.142769 -0.944338,-0.042831c-0.315811,-0.177033 -0.826682,-0.396897 -1.021742,-0.539666c-0.201252,-0.142769 -0.709027,-0.251273 -0.944338,-0.251273c-0.238407,0 -0.201252,-0.148479 -0.551122,0.288393c-0.352966,0.436872 0,0.582496 -0.631623,0.505401c-0.631623,-0.065674 0.077405,-0.102793 0.436563,-0.539666c0.349869,-0.434017 -0.04025,-0.691 -0.436563,-0.579641c-0.39012,0.108504 -0.117655,0.328368 -0.746182,0.436872c-0.628526,0.102793 -0.628526,-0.256984 -0.23531,-0.328368s1.099147,-0.396897 1.099147,-0.542521c0,-0.145624 -0.077405,-0.545376 -0.393216,-0.545376s-0.238407,-0.359777 -0.709027,-0.830914c-0.284849,-0.288393 -0.606853,-0.468281 -0.925761,-0.582496c-0.278657,-1.653261 -0.464428,-3.332221 -0.464428,-5.056866c0,-8.120682 3.21694,-15.550364 8.517616,-21.295375c0.074309,-0.057107 0.148617,-0.097083 0.213637,-0.102793c0.26008,-0.025698 0.959819,-0.071384 1.579056,-0.168467c0.62543,-0.097083 1.294207,-0.459715 1.514036,-0.436872c0.213637,0.022843 0.746182,0.022843 0.575891,-0.119926c-0.173387,-0.162756 -0.414889,-0.49969 -0.774047,-0.49969s-0.02477,-0.531099 0.071212,-0.531099c0.092886,0 0.575891,0.071384 0.551122,0.314091c-0.021673,0.242707 0.145521,0.553942 0.622334,0.459715c0.483005,-0.097083 0.408697,-0.462571 0.315811,-0.556798c-0.099078,-0.097083 -0.17029,-0.339789 -0.263176,-0.508256c-0.095982,-0.171322 -0.071212,-0.388331 0.433466,-0.436872c0.501583,-0.045686 1.195129,0.19131 1.170359,-0.194165s0,-0.799505 0.142425,-1.016513c0.145521,-0.214153 0.458236,-0.362632 0.287946,-0.434017c-0.164098,-0.071384 -0.380831,0.097083 -0.551122,-0.26555c-0.167194,-0.362632 0.145521,-0.628182 0.334388,-0.773806c0.061924,-0.042831 0.207445,-0.171322 0.383927,-0.319802c5.823932,-3.803357 12.914204,-6.061958 20.580368,-6.061958c9.948055,0 18.954869,3.777659 25.432097,9.851039c-0.02477,0.062818 -0.030962,0.148479 -0.095982,0.159901c-0.238407,0.03712 -0.513967,0.179889 -0.554218,-0.145624c-0.04025,-0.325513 -0.04025,-0.945129 -0.315811,-0.579641c-0.275561,0.362632 -0.393216,0.362632 -0.393216,0.545376c0,0.179889 0.23531,0.362632 0.157906,0.688145c-0.080501,0.325513 -0.080501,0.545376 0.043347,0.545376c0.111463,0 0.39012,-0.328368 0.739989,-0.402608c0.359158,-0.071384 0.987684,-0.251273 1.027935,0.07424c0.04025,0.328368 0.43037,0.434017 0.04025,0.579641c-0.396312,0.145624 -0.826682,0.07424 -0.907183,-0.145624c-0.077405,-0.219864 -0.352966,-0.219864 -0.628526,-0.03712c-0.272465,0.179889 -0.863837,0.833769 -0.863837,0.833769s-0.947434,0.396897 -1.061993,0.325513c-0.123848,-0.071384 0.312715,-0.471137 0.628526,-0.651025c0.315811,-0.182744 0.551122,-0.582496 0.433466,-0.691c-0.117655,-0.108504 -0.272465,-0.796649 -0.19506,-0.979393c0.077405,-0.179889 0.43037,-0.434017 0.04025,-0.616761c-0.393216,-0.179889 -0.671873,-0.399752 -0.984588,-0.508256s-0.668777,0.434017 -0.944338,0.582496c-0.275561,0.145624 -0.23531,0.325513 -0.591372,0.362632c-0.352966,0.03712 -0.58518,0.471137 0,0.725265c0.591372,0.254128 0.789528,0.434017 0.631623,0.582496c-0.157906,0.145624 -0.826682,-0.071384 -0.826682,-0.071384s-0.510871,-0.217008 -0.829779,-0.217008c-0.312715,0 -0.709027,-0.179889 -1.021742,-0.217008c-0.315811,-0.03712 -0.947434,-0.03712 -1.099147,0.108504c-0.157906,0.145624 -0.554218,0.579641 -0.866933,0.434017c-0.312715,-0.145624 -0.312715,-0.291248 -0.746182,-0.145624c-0.433466,0.145624 -0.863837,-0.108504 -1.099147,0.108504c-0.238407,0.217008 -0.04025,0.217008 -0.789528,0c-0.746182,-0.217008 -0.58518,0.145624 -1.297303,0.254128s-1.139398,-0.108504 -1.337554,0.108504c-0.198156,0.219864 -0.473717,0.619616 -0.588276,0.362632c-0.117655,-0.251273 0.39012,-0.688145 0.191964,-0.833769c-0.191964,-0.145624 -1.021742,-0.071384 -1.136301,0.03712c-0.120751,0.108504 -0.043347,0.508256 0.034058,0.653881c0.080501,0.142769 0.198156,0.725265 -0.034058,0.616761c-0.238407,-0.108504 -0.198156,-0.473992 -0.436563,-0.434017c-0.23531,0.03712 -0.510871,0.145624 -0.628526,0.219864c-0.117655,0.071384 -0.591372,0.071384 -0.709027,0.217008c-0.114559,0.145624 0.043347,0.545376 -0.157906,0.579641c-0.19506,0.03712 -0.352966,0.182744 -0.786432,-0.071384c-0.433466,-0.254128 -0.433466,-0.108504 -0.551122,-0.034264c-0.117655,0.071384 -0.668777,0.362632 -0.709027,0.034264c-0.04025,-0.325513 0.077405,-0.434017 -0.275561,-0.653881c-0.356062,-0.217008 -0.080501,-0.217008 0.393216,-0.071384c0.470621,0.142769 1.061993,0.214153 1.92583,-0.03712c0.866933,-0.254128 1.222995,-0.362632 0.866933,-0.508256c-0.356062,-0.142769 -0.709027,-0.288393 -1.257053,-0.362632c-0.554218,-0.071384 -1.300399,-0.071384 -2.167332,-0.362632c-0.863837,-0.291248 -1.061993,-0.399752 -1.414958,-0.471137c-0.356062,-0.07424 -2.517202,-0.399752 -3.504886,-0.254128c-0.981492,0.145624 -3.693754,0.799505 -3.854755,0.908009s-0.396312,0.542521 -0.904087,0.908009c-0.510871,0.362632 -1.455209,1.196401 -2.204487,1.342026c-0.746182,0.145624 -1.613114,0.725265 -1.613114,0.870889c0,0.145624 0.312715,0.691 0.23531,0.799505c-0.077405,0.108504 0.154809,0.653881 0.591372,0.799505c0.43037,0.142769 1.179648,0.108504 1.216802,-0.11136c0.043347,-0.217008 0.631623,-0.688145 0.671873,-0.362632c0.04025,0.328368 0.433466,0.833769 0.352966,1.050777c-0.077405,0.219864 0,0.436872 0.278657,0.399752c0.272465,-0.034264 1.73077,-0.325513 1.73077,-0.325513s0.473717,-0.182744 0.393216,-0.473992c-0.080501,-0.288393 0.513967,-0.688145 0.628526,-0.796649c0.117655,-0.108504 0.551122,-0.545376 0.043347,-0.688145c-0.517064,-0.145624 -0.907183,-0.182744 -0.356062,-0.616761s0.904087,0 1.613114,-0.653881c0.709027,-0.653881 -0.157906,-0.833769 0.591372,-0.870889c0.746182,-0.03712 1.53571,-0.071384 1.374708,0.145624c-0.154809,0.217008 -1.058897,0.691 -1.572864,0.908009c-0.513967,0.219864 -0.433466,0.616761 -0.23531,0.833769c0.19506,0.217008 0.278657,0.725265 0.631623,0.653881c0.349869,-0.071384 0.786432,-0.325513 1.176552,-0.288393c0.396312,0.034264 1.18584,-0.03712 1.300399,-0.03712c0.120751,0 0.668777,0.508256 0.352966,0.579641c-0.312715,0.071384 -0.709027,0.03712 -1.377804,0.071384c-0.665681,0.03712 -1.411862,0.03712 -1.411862,0.145624c0,0.11136 0.904087,0.362632 0.588276,0.545376c-0.315811,0.179889 -0.628526,-0.03712 -1.024839,-0.07424c-0.393216,-0.034264 -0.628526,0.473992 -0.746182,0.762385c-0.120751,0.291248 0.19506,0.799505 -0.393216,0.616761c-0.591372,-0.179889 -1.024839,-0.179889 -1.179648,-0.108504c-0.157906,0.071384 -0.628526,0.217008 -1.024839,0.325513c-0.39012,0.108504 -0.23531,-0.179889 -0.749278,-0.179889c-0.507775,0 -0.507775,0 -0.507775,0l-0.318907,0.03712c0,0 -0.312715,-0.179889 -0.352966,-0.471137c-0.04025,-0.291248 0.154809,-0.616761 -0.04025,-0.688145c-0.198156,-0.07424 -0.904087,0.034264 -1.021742,0.251273c-0.117655,0.217008 -0.238407,0.616761 -0.080501,0.799505c0.161002,0.179889 0.631623,0.542521 0.198156,0.434017c-0.433466,-0.108504 -0.981492,-0.145624 -1.297303,0.07424c-0.312715,0.217008 -0.863837,0.688145 -0.863837,0.688145s-0.984588,0.071384 -0.984588,0.291248c0,0.219864 0,0.508256 -0.352966,0.545376c-0.356062,0.03712 -0.829779,0.142769 -1.300399,0.217008c-0.473717,0.071384 -0.43037,0.251273 -0.981492,0.291248s-0.631623,0.254128 -0.117655,0.325513c0.510871,0.071384 1.294207,0.362632 1.334457,0.688145c0.043347,0.325513 -0.04025,0.691 -0.23531,1.016513c-0.133136,0.225575 -0.944338,0.07424 -1.418055,0.07424c-0.470621,0 -1.411862,-0.145624 -1.808174,0c-0.393216,0.145624 -0.315811,0.870889 -0.198156,1.196401c0.120751,0.325513 -0.037154,0.508256 -0.19506,0.616761c-0.157906,0.108504 -0.201252,0.434017 0,0.582496c0.19506,0.145624 0.352966,0.471137 0.513967,0.508256c0.157906,0.03712 0.665681,-0.108504 0.863837,0.071384c0.198156,0.182744 0.393216,0.616761 0.510871,0.508256c0.120751,-0.108504 0.275561,-0.579641 0.473717,-0.473992c0.198156,0.11136 0.668777,-0.034264 1.024839,-0.071384s0.548025,-0.399752 0.904087,-0.582496c0.352966,-0.179889 0.154809,-0.179889 0.04025,-0.399752c-0.117655,-0.217008 0.352966,-0.471137 0.631623,-0.725265c0.272465,-0.254128 0.783336,-0.03712 0.904087,-0.328368c0.117655,-0.291248 0.157906,-0.796649 0.467525,-0.762385c0.318907,0.03712 0.752374,0.217008 1.024839,0.217008c0.275561,0 0.863837,-0.399752 1.027935,-0.471137c0.154809,-0.071384 0.746182,-0.03712 0.826682,0.291248c0.077405,0.325513 0.746182,0.725265 0.904087,0.796649c0.157906,0.071384 1.179648,0.362632 1.34065,0.471137c0.154809,0.108504 0.39012,0.436872 0.470621,0.725265c0.077405,0.291248 0.352966,0.291248 0.396312,0.03712c0.037154,-0.254128 -0.201252,-0.725265 0.077405,-0.691c0.272465,0.03712 0.591372,-0.07424 0.591372,-0.07424s-0.752374,-0.471137 -1.024839,-0.579641c-0.272465,-0.108504 -0.789528,-0.325513 -1.024839,-0.688145c-0.23531,-0.362632 -0.826682,-0.436872 -0.786432,-0.796649c0.04025,-0.362632 0.591372,-0.145624 0.904087,0.145624c0.315811,0.291248 1.102243,0.688145 1.377804,0.942273c0.272465,0.254128 0.709027,0.362632 0.826682,0.691c0.120751,0.325513 0.470621,0.688145 0.588276,0.833769c0.117655,0.145624 0.510871,0.945129 0.631623,1.125017c0.117655,0.179889 0.510871,-0.034264 0.709027,-0.179889c0.19506,-0.145624 0.554218,-0.217008 0.591372,-0.508256c0.04025,-0.291248 -0.473717,-0.508256 -0.628526,-0.616761c-0.157906,-0.108504 0.393216,-0.217008 0.591372,-0.362632c0.19506,-0.142769 0.548025,-0.399752 0.705931,-0.179889c0.157906,0.219864 0.080501,1.087897 0.157906,1.233521c0.077405,0.145624 0.863837,0.362632 1.024839,0.545376c0.154809,0.179889 0.826682,0.254128 0.941241,0.145624c0.120751,-0.108504 0.749278,0.07424 0.91028,0.108504c0.151713,0.03712 0.62543,-0.071384 0.941241,-0.142769c0.318907,-0.071384 0.631623,-0.291248 0.591372,0.179889c-0.04025,0.471137 -0.157906,1.196401 -0.554218,1.559034c-0.393216,0.362632 -0.23531,0.545376 -0.62543,0.545376c-0.185771,0 -0.349869,0 -0.483005,0.059963c-0.126944,-0.185599 -0.303427,-0.334079 -0.541833,-0.276971c-0.470621,0.108504 -1.065089,0.108504 -1.455209,0.542521c-0.396312,0.436872 -0.551122,0.471137 -0.631623,0.325513c-0.077405,-0.145624 1.142494,-0.762385 0.981492,-0.945129c-0.154809,-0.179889 -1.099147,-0.108504 -1.613114,-0.108504c-0.513967,0 -0.944338,-0.291248 -1.34065,-0.362632c-0.39012,-0.071384 -0.904087,0.362632 -1.294207,0.725265c-0.396312,0.362632 -0.668777,0.108504 -1.024839,0.108504c-0.356062,0 -1.024839,-0.471137 -1.024839,-0.471137s-0.668777,-0.254128 -0.944338,-0.254128c-0.272465,0 -0.826682,-0.471137 -0.984588,-0.471137c-0.154809,0 -0.588276,-0.328368 -0.272465,-0.473992c0.312715,-0.142769 0.62543,0.145624 0.312715,-0.653881c-0.312715,-0.796649 -1.021742,-0.616761 -1.297303,-0.508256c-0.272465,0.11136 -2.241641,0.071384 -2.399546,0.071384c-0.157906,0 -1.297303,0.362632 -1.650269,0.508256c-0.359158,0.145624 -0.984588,0.328368 -1.142494,0.399752c-0.157906,0.071384 -0.984588,-0.145624 -1.34065,0.03712c-0.467525,0.239851 -0.900991,0.616761 -1.021742,0.616761c-0.117655,0 -0.473717,0.254128 -0.709027,0.799505c-0.238407,0.542521 0.04025,1.013658 -0.396312,1.196401c-0.43037,0.179889 -1.219898,0.582496 -1.532614,0.870889c-0.315811,0.288393 -0.709027,1.307761 -1.099147,1.778898c-0.393216,0.471137 0,0.905153 0.077405,1.196401c0.077405,0.288393 0.352966,0.833769 -0.077405,1.344881c-0.433466,0.508256 -0.393216,0.759529 -0.591372,0.796649c-0.19506,0.03712 0.19506,0.179889 0.272465,0.542521c0.077405,0.365488 -0.352966,0.72812 0.396312,1.053633c0.746182,0.322657 1.099147,0.619616 1.294207,1.047922c0.198156,0.436872 1.182744,1.162137 1.182744,1.162137s0.709027,0.585352 1.065089,0.836624c0.352966,0.254128 0.470621,0.108504 0.548025,-0.142769c0.077405,-0.256984 0.551122,-0.296959 1.099147,-0.296959c0.551122,0 0.944338,0.114215 1.495459,0.039975c0.551122,-0.071384 1.102243,-0.402608 1.300399,-0.473992c0.19506,-0.071384 0.863837,-0.468281 1.371612,-0.179889c0.513967,0.294103 0.436563,0.688145 0.712123,0.947984c0.272465,0.251273 0.743085,0.105649 1.099147,-0.145624c0.352966,-0.256984 0.198156,-0.148479 0.628526,0.071384c0.433466,0.214153 0.631623,0.431161 0.238407,0.762385c-0.396312,0.322657 -0.157906,0.836624 -0.396312,1.342026c-0.23531,0.508256 -0.19506,0.579641 0.238407,0.793794c0.433466,0.217008 1.219898,1.564745 1.455209,1.821728c0.238407,0.251273 -0.077405,0.976538 0.198156,1.41341c0.275561,0.431161 0.551122,0.725265 0.238407,0.945129c-0.318907,0.214153 -0.866933,0.616761 -0.904087,1.342026s0.157906,1.230666 0.315811,1.48765s0.548025,0.945129 0.746182,1.196401c0.198156,0.254128 0.433466,0.870889 0.470621,1.270641c0.04025,0.399752 -0.074309,0.873744 0.120751,1.087897c0.198156,0.217008 0.315811,0.545376 0.668777,0.833769c0.356062,0.294103 0.470621,0.908009 0.470621,0.908009s0.120751,0.254128 0.157906,0.653881c0.037154,0.399752 0.077405,0.651025 0.470621,0.833769c0.39012,0.179889 0.665681,0.217008 0.866933,0.03712c0.19506,-0.179889 1.179648,-0.219864 1.690519,-0.179889c0.510871,0.03712 1.099147,-0.214153 1.613114,-0.542521s1.260149,-1.196401 1.53571,-1.45053c0.275561,-0.256984 0.904087,-0.72812 0.829779,-1.016513c-0.077405,-0.288393 -0.238407,-0.579641 0.074309,-0.725265c0.315811,-0.148479 1.065089,-0.434017 1.102243,-0.653881c0.04025,-0.219864 -0.278657,-1.127873 -0.356062,-1.304906c-0.074309,-0.182744 0.198156,-0.513967 0.510871,-0.873744c0.318907,-0.365488 1.303496,-0.616761 1.458305,-0.762385c0.157906,-0.151335 0.591372,-0.762385 0.671873,-1.236377c0.074309,-0.476847 -0.157906,-1.053633 0,-1.304906c0.154809,-0.256984 0.04025,-0.471137 -0.318907,-0.76524c-0.352966,-0.291248 -0.275561,-1.162137 -0.393216,-1.304906c-0.114559,-0.145624 -0.04025,-0.910864 0.19506,-0.985104c0.23531,-0.065674 0.749278,-0.796649 1.065089,-1.122162c0.315811,-0.325513 1.219898,-1.342026 1.653365,-1.416265c0.43037,-0.071384 1.099147,-0.653881 1.139398,-0.979393c0.04025,-0.328368 1.176552,-1.561889 1.219898,-1.813162c0.04025,-0.256984 0.513967,-1.199257 0.315811,-1.419121c-0.191964,-0.217008 -1.73077,0.328368 -1.92583,0.402608c-0.198156,0.071384 -0.746182,0.362632 -1.3809,0.322657c-0.62543,-0.03712 -0.352966,-0.505401 -0.393216,-0.725265c-0.037154,-0.217008 -0.705931,-1.050777 -0.863837,-1.087897c-0.157906,-0.034264 -0.628526,-0.473992 -0.826682,-0.905153c-0.19506,-0.436872 -0.470621,-0.979393 -0.786432,-1.307761c-0.315811,-0.325513 -0.510871,-1.085042 -0.829779,-1.596154c-0.312715,-0.508256 -0.58518,-1.162137 -0.863837,-1.633274c-0.06502,-0.11707 -0.139329,-0.225575 -0.207445,-0.334079c0.36535,-0.082806 0.894799,-0.234141 0.959819,-0.025698c0.074309,0.251273 0.510871,0.796649 0.588276,1.196401s0.510871,0.254128 0.551122,0.616761c0.043347,0.365488 0.433466,1.236377 0.588276,1.342026c0.161002,0.108504 0.866933,0.691 0.984588,0.908009c0.117655,0.217008 0.275561,0.508256 0.393216,1.053633c0.117655,0.542521 0.23531,1.267786 0.554218,1.37629c0.315811,0.108504 1.374708,-0.182744 1.572864,-0.291248s1.492363,-0.691 1.96608,-0.72812c0.473717,-0.034264 0.554218,-0.328368 1.139398,-0.434017c0.591372,-0.108504 1.024839,-0.505401 1.418055,-0.799505c0.393216,-0.288393 0.866933,-1.013658 1.021742,-1.267786c0.161002,-0.251273 0.554218,-0.434017 0.356062,-0.722409c-0.19506,-0.294103 -1.024839,-0.725265 -1.34065,-0.76524c-0.315811,-0.034264 -0.275561,-0.508256 -0.470621,-0.508256s-0.157906,0.251273 -0.551122,0.436872c-0.393216,0.179889 -0.789528,0.542521 -1.065089,0.471137s0.080501,-0.254128 -0.349869,-0.579641s-0.594468,-0.399752 -0.594468,-0.651025c0,-0.254128 -0.860741,-0.72812 -0.941241,-1.090753c-0.080501,-0.362632 0.588276,-0.870889 0.786432,-0.542521c0.19506,0.325513 0.356062,0.833769 0.863837,1.050777c0.510871,0.217008 0.984588,0.582496 1.222995,0.653881c0.23531,0.071384 0.826682,-0.399752 1.021742,-0.325513c0.19506,0.068529 0.591372,0.722409 0.947434,0.833769c0.349869,0.108504 1.532614,0.145624 1.73077,0.145624s1.021742,0.03712 1.179648,-0.179889c0.157906,-0.217008 0.275561,-0.217008 0.473717,-0.217008c0.191964,0 0.548025,0.653881 0.826682,0.725265c0.275561,0.071384 0.786432,0.03712 0.746182,0.511112c-0.037154,0.468281 0.23531,0.870889 0.510871,0.905153c0.278657,0.034264 0.907183,-0.545376 0.907183,-0.545376s0,0.908009 -0.037154,1.236377c-0.043347,0.322657 0.43037,1.524769 0.43037,1.524769s0.588276,1.122162 0.746182,1.37629s0.826682,1.013658 0.826682,1.342026c0,0.328368 0.077405,0.836624 0.318907,0.836624c0.23531,0 0.470621,-0.579641 0.743085,-0.945129c0.281753,-0.359777 0.359158,-0.870889 0.473717,-1.233521c0.117655,-0.362632 0.117655,-1.016513 0.117655,-1.267786c0,-0.256984 0.232214,-0.473992 0.789528,-0.691c0.551122,-0.217008 0.941241,-0.833769 1.411862,-1.162137c0.473717,-0.328368 0.436563,-0.870889 1.3809,-0.870889c0.944338,0 0.860741,0 1.099147,-0.219864c0.23531,-0.217008 0.467525,-0.362632 0.588276,0.03712c0.117655,0.399752 0.786432,0.979393 0.904087,1.125017c0.117655,0.148479 0.352966,0.545376 0.318907,0.982248c-0.04025,0.434017 0.037154,0.942273 0.232214,0.942273s0.591372,-0.616761 0.591372,-0.616761s0.863837,-0.539666 0.826682,0.03712c-0.043347,0.579641 0.077405,1.196401 0.077405,1.556179c0,0.151335 0.13004,0.385475 0.272465,0.599628c-0.015481,0.168467 -0.012385,0.339789 -0.027866,0.508256c-0.281753,0.068529 -0.284849,0.565364 -0.133136,0.745252zm-21.840517,-15.207719c0.23531,0.142769 0.315811,0.362632 0.470621,0.579641c0.161002,0.217008 0.433466,0.142769 0.628526,0.325513c0.19506,0.182744 -0.551122,0.399752 -0.232214,0.616761c0.312715,0.219864 0.467525,1.087897 0.510871,1.307761c0.04025,0.217008 -0.863837,0.325513 -1.142494,0.291248c-0.275561,-0.03712 -1.096051,-0.291248 -1.377804,-0.362632c-0.275561,-0.07424 -0.43037,-0.979393 -0.077405,-0.945129c0.359158,0.03712 0.436563,-0.071384 0.826682,-0.396897c0.396312,-0.328368 -0.58518,-0.473992 -0.860741,-0.545376c-0.275561,-0.071384 -0.829779,-0.870889 -1.024839,-1.125017c-0.191964,-0.254128 -0.043347,-0.651025 0.436563,-0.945129c0.23531,-0.145624 0.863837,0.179889 1.179648,0c0.312715,-0.179889 0.628526,-0.399752 0.746182,-0.471137c0.120751,-0.071384 0.907183,0.108504 1.021742,0.325513c0.120751,0.217008 0.591372,0.545376 0.436563,0.653881c-0.161002,0.108504 -0.870029,0.217008 -1.102243,0c-0.232214,-0.219864 -0.789528,0.034264 -0.829779,0.434017c-0.043347,0.402608 0.157906,0.11136 0.39012,0.256984zm-10.858335,0.616761c-0.238407,-0.071384 0.077405,-0.508256 0.315811,-0.653881c0.232214,-0.145624 0.507775,-0.508256 0.746182,-0.870889c0.23531,-0.362632 0.551122,-0.399752 0.746182,-0.362632c0.19506,0.03712 0.628526,0.688145 0.746182,0.908009c0.117655,0.217008 0.510871,-0.07424 0.671873,-0.145624c0.154809,-0.071384 0.393216,-0.291248 0.433466,-0.471137s0.393216,-0.291248 0.786432,-0.291248s0.04025,0.291248 -0.23531,0.362632c-0.278657,0.071384 -0.117655,0.219864 0.349869,0.362632c0.473717,0.145624 0.907183,0.545376 1.421151,0.796649c0.510871,0.254128 0.588276,0.762385 0.272465,0.833769c-0.312715,0.071384 -1.257053,0.145624 -1.613114,0.108504c-0.352966,-0.03712 -0.786432,-0.362632 -1.297303,-0.436872c-0.510871,-0.071384 -1.142494,-0.03712 -1.34065,0.219864s-0.904087,0.142769 -1.222995,0.142769c-0.315811,0 -0.705931,0.362632 -0.783336,0.219864c0.003096,0.002855 0.238407,-0.64817 0.003096,-0.722409zm1.337554,-8.057864c0.19506,-0.508256 1.297303,0.108504 1.099147,0.362632c-0.19506,0.256984 -1.232283,-0.017132 -1.099147,-0.362632zm1.532614,26.058138c0.19506,0.291248 -0.433466,1.230666 -0.786432,1.162137c-0.349869,-0.077095 -0.23531,-0.908009 -0.117655,-1.090753c0.117655,-0.182744 0.801913,-0.22843 0.904087,-0.071384zm-14.28272,-16.875257c0.077405,-0.145624 -0.120751,-0.436872 -0.393216,-0.03712c-0.092886,0.139913 0.315811,0.182744 0.393216,0.03712zm23.605345,-13.246078c0.436563,0.217008 1.049608,0.305525 1.34065,0.03712c0.23531,-0.217008 0.04025,-0.582496 -0.154809,-0.616761c-0.198156,-0.03712 -0.322004,-0.328368 0.191964,-0.579641c0.510871,-0.254128 1.061993,-0.582496 1.653365,-0.653881c0.588276,-0.071384 1.92583,-0.108504 2.39645,0c0.470621,0.11136 1.182744,-0.473992 1.377804,-0.725265s-0.628526,-0.434017 -0.863837,-0.145624c-0.238407,0.291248 -1.374708,0.217008 -1.613114,0.145624c-0.23531,-0.071384 -2.123986,0.291248 -2.514105,0.291248c-0.396312,0 -0.554218,0.434017 -1.102243,0.653881c-0.554218,0.217008 -1.300399,0.545376 -1.57596,0.653881c-0.272465,0.108504 -0.548025,0.542521 -0.312715,0.616761c0.23531,0.071384 0.746182,0.105649 1.176552,0.322657zm-20.654677,13.246078c0.198156,-0.254128 -0.157906,-0.619616 -0.352966,-0.619616c-0.371543,0 -0.551122,0.545376 -0.318907,0.725265c0.238407,0.185599 0.473717,0.148479 0.671873,-0.105649zm1.77102,0.979393c0.198156,0.071384 0.352966,0.291248 0.510871,0.325513c0.161002,0.03712 0.671873,0 0.517064,-0.362632s-0.517064,-0.362632 -0.631623,-0.362632c-0.117655,0 -0.628526,-0.108504 -0.826682,0c-0.145521,0.07995 0.232214,0.328368 0.43037,0.399752zm-10.54562,-5.879214c0.312715,0.03712 0.671873,-0.179889 0.944338,-0.288393c0.272465,-0.108504 0.668777,-0.325513 0.668777,-0.653881c0,-0.325513 -0.077405,-0.616761 -0.238407,-0.762385c-0.157906,-0.145624 -0.433466,-0.182744 -0.668777,-0.145624c-0.356062,0.057107 -0.393216,0.399752 -0.628526,0.399752c-0.23531,0 -0.510871,0.071384 -0.433466,0.325513s0.238407,0.434017 0,0.542521c-0.23531,0.11136 0.037154,0.548232 0.356062,0.582496zm1.928926,-1.559034c0.393216,0.145624 1.219898,0.291248 0.904087,0.436872c-0.315811,0.145624 -0.866933,0.542521 -0.944338,0.762385s0.668777,0.436872 0.668777,0.436872s-0.238407,0.254128 -0.04025,0.325513c0.19506,0.071384 0.315811,-0.254128 0.628526,-0.254128c0.312715,0 0.941241,0.179889 1.257053,0.179889c0.318907,0 0.826682,-0.399752 0.786432,-0.653881c-0.04025,-0.254128 -0.433466,-0.653881 -0.786432,-0.799505c-0.349869,-0.145624 -0.746182,-0.799505 -0.981492,-0.945129c-0.23531,-0.145624 0.23531,-0.508256 -0.04025,-0.762385c-0.278657,-0.254128 -0.473717,-0.217008 -0.789528,-0.399752c-0.315811,-0.179889 -0.591372,0.03712 -0.786432,0.254128c-0.19506,0.217008 -0.433466,-0.03712 -0.671873,0.034264c-0.315811,0.099938 -0.19506,0.473992 -0.037154,0.653881c0.161002,0.185599 0.439659,0.585352 0.832875,0.730976zm39.625027,19.376564c-0.256984,0.105649 -0.473717,1.342026 0,1.48765c0.470621,0.148479 0.746182,-0.576785 0.591372,-0.762385c-0.161002,-0.177033 -0.238407,-0.870889 -0.591372,-0.725265zm-14.288912,9.32565c-0.492294,-0.128492 -0.548025,0.473992 -0.941241,0.873744c-0.396312,0.402608 -0.826682,0.725265 -0.981492,0.688145c-0.161002,-0.03712 -1.024839,0.254128 -0.749278,0.796649c0.275561,0.545376 0.23531,1.090753 -0.04025,1.347736c-0.275561,0.251273 0.23531,0.976538 0.161002,1.37629c-0.080501,0.396897 0.114559,0.653881 0.665681,0.653881s0.749278,-0.182744 0.984588,-0.653881c0.23531,-0.473992 0.272465,-0.945129 0.507775,-1.342026c0.238407,-0.402608 0.436563,-1.239232 0.554218,-1.45624c0.117655,-0.214153 0.352966,-0.902298 0.315811,-1.304906c-0.043347,-0.394042 -0.198156,-0.908009 -0.476813,-0.979393zm-30.104246,-33.299366c-0.213637,-0.171322 -0.709027,-0.291248 -0.947434,-0.314091c-0.23531,-0.022843 -0.470621,0.171322 -0.993877,0.171322c-0.52016,0 -0.863837,0.19131 -1.074378,0c-0.210541,-0.194165 -1.08057,-0.291248 -1.161071,-0.171322c-0.10527,0.162756 -0.312715,0.168467 -0.10527,0.508256c0.213637,0.336934 0.371543,0.531099 0.554218,0.508256s0.811202,-0.048541 0.891702,0.145624c0.077405,0.194165 0.291042,0.362632 0.733797,0.242707c0.448947,-0.119926 0.814298,-0.194165 0.916472,-0.339789c0.102174,-0.145624 0.814298,-0.168467 0.814298,-0.168467s0.578987,-0.414029 0.371543,-0.582496z" stroke-opacity="null" stroke-width="0" fill="#af31bc"/>
 </g>
</svg>